# xmcd CD database file
#
# Track frame offsets:
#	150
#	19970
#	43180
#	60307
#	81597
#	92645
#	106902
#	125480
#	150032
#	171672
#	189485
#	212027
#	219562
#	240260
#	273277
#
# Disc length: 4440 seconds
#
# Revision: 0
# Processed by: cddbd v1.5.1PL0 Copyright (c) Steve Scherf et al.
# Submitted via: CDex 1.51
#
DISCID=c911560f
DTITLE=KUMACHI - Re：HEART
DYEAR=2004
DGENRE=JPop
TTITLE0=Good Bye! High School Days 〜Album Version〜
TTITLE1=オルゴール
TTITLE2=無口な男の子
TTITLE3=レジスタンス 〜灰色の時代〜
TTITLE4=i UP THE HANDS !
TTITLE5=Sentiment
TTITLE6=I'll be here
TTITLE7=愛しい君
TTITLE8=バイバイ
TTITLE9=さよなら
TTITLE10=Raining
TTITLE11=オルゴール 〜リアル オルゴール Version〜
TTITLE12=優
TTITLE13=if
TTITLE14=CDS
EXTD=YEAR: 2004
EXTT0=
EXTT1=
EXTT2=
EXTT3=
EXTT4=
EXTT5=
EXTT6=
EXTT7=
EXTT8=
EXTT9=
EXTT10=
EXTT11=
EXTT12=
EXTT13=
EXTT14=
PLAYORDER=
